# xmcd CD database file
#
# Track frame offsets:
#	182
#	14687
#	27922
#	41542
#	55357
#	66917
#	80842
#	94742
#	123422
#	138360
#	153315
#	167647
#	181740
#	197077
#	212187
#	225317
#
# Disc length: 3183 seconds
#
# Revision: 0
# Processed by: cddbd v1.4PL0 Copyright (c) Steve Scherf et al.
# Submitted via: Feurio! 1.64 - http://www.feurio.com
#
DISCID=d90c6d10
DTITLE=B. B. King - Sweet Little Angel
DYEAR=1900
DGENRE=
TTITLE0=You Upset Me Baby
TTITLE1=Everyday (I Have The Blues)
TTITLE2=Sneakin' Around
TTITLE3=The Woman I Love
TTITLE4=Please Accept My Love
TTITLE5=Three 'O'Clock Blues
TTITLE6=Save A Seat For Me
TTITLE7=Sweet Sixteen Parts 1 and 2
TTITLE8=Sweet Little Angel
TTITLE9=Let Me Love You
TTITLE10=Rock Me Baby
TTITLE11=Army Of The Lord
TTITLE12=I've Got A Right To Love My Baby
TTITLE13=Well Baby, Look At You
TTITLE14=Please Love Me Bay
TTITLE15=Woke Up This Morning
EXTD=
EXTT0=
EXTT1=
EXTT2=
EXTT3=
EXTT4=
EXTT5=
EXTT6=
EXTT7=
EXTT8=
EXTT9=
EXTT10=
EXTT11=
EXTT12=
EXTT13=
EXTT14=
EXTT15=
PLAYORDER=
